<svg xmlns="http://www.w3.org/2000/svg" width="476.4" height="393.41" viewBox="0 0 476.4 393.41">
  <defs>
    <style>
      .cls-1 {
        fill: #e0e0e0;
      }

      .cls-2 {
        fill: #020e38;
      }

      .cls-3 {
        fill: #2e4464;
      }

      .cls-16, .cls-4 {
        fill: #fff;
      }

      .cls-16, .cls-17, .cls-5 {
        opacity: 0.3;
      }

      .cls-6 {
        fill: #06ac7b;
      }

      .cls-7 {
        fill: #ebebeb;
      }

      .cls-8 {
        opacity: 0.7;
      }

      .cls-9 {
        fill: #fafafa;
      }

      .cls-10 {
        fill: #f5f5f5;
      }

      .cls-11 {
        opacity: 0.4;
      }

      .cls-12 {
        fill: none;
        stroke: #020e38;
        stroke-miterlimit: 10;
        stroke-width: 0.05px;
      }

      .cls-13 {
        fill: #ffbe9d;
      }

      .cls-14 {
        fill: #eb996e;
      }

      .cls-15 {
        opacity: 0.6;
      }
    </style>
  </defs>
  <g id="Buildings">
    <g>
      <rect class="cls-1" x="207.82" y="301.27" width="268.58" height="6.22"/>
      <g>
        <path class="cls-2" d="M219.74,381.9s0-.11,0-.35,0-.62,0-1.1c0-1,0-2.49,0-4.51v-.09h.08c15.84-.12,68.07-.2,130-.2l96.12.08,29.12.09,7.92.06,2.06,0c.47,0,.7,0,.7,0s-.23,0-.7,0l-2.06,0-7.92.06-29.12.09-96.12.09c-61.88,0-114.11-.09-129.95-.21l.08-.08c0,2,0,3.51,0,4.51,0,.48,0,.84,0,1.1S219.74,381.9,219.74,381.9Z" transform="translate(-9.22 -74.29)"/>
        <path class="cls-2" d="M251.72,376a15.15,15.15,0,0,1,0,5.9,15.15,15.15,0,0,1,0-5.9Z" transform="translate(-9.22 -74.29)"/>
        <path class="cls-2" d="M286.94,376a15.15,15.15,0,0,1,0,5.9,15.15,15.15,0,0,1,0-5.9Z" transform="translate(-9.22 -74.29)"/>
        <path class="cls-2" d="M322.16,376a15.15,15.15,0,0,1,0,5.9,15.15,15.15,0,0,1,0-5.9Z" transform="translate(-9.22 -74.29)"/>
        <path class="cls-2" d="M357.38,376a15.15,15.15,0,0,1,0,5.9,15.15,15.15,0,0,1,0-5.9Z" transform="translate(-9.22 -74.29)"/>
        <path class="cls-2" d="M392.6,376a15.15,15.15,0,0,1,0,5.9,15.15,15.15,0,0,1,0-5.9Z" transform="translate(-9.22 -74.29)"/>
        <path class="cls-2" d="M427.82,376a15.15,15.15,0,0,1,0,5.9,15.15,15.15,0,0,1,0-5.9Z" transform="translate(-9.22 -74.29)"/>
        <path class="cls-2" d="M463,376a15.15,15.15,0,0,1,0,5.9,15.15,15.15,0,0,1,0-5.9Z" transform="translate(-9.22 -74.29)"/>
      </g>
    </g>
    <g>
      <rect class="cls-3" x="255.14" width="71.17" height="300.97"/>
      <g>
        <rect class="cls-4" x="268.32" y="15.03" width="21.63" height="41.68"/>
        <path class="cls-2" d="M289,131c-.16,0-.29-9.34-.29-20.85s.13-20.84.29-20.84.28,9.33.28,20.84S289.13,131,289,131Z" transform="translate(-9.22 -74.29)"/>
        <path class="cls-2" d="M299.17,103.79a101,101,0,0,1-10.81.29,101.16,101.16,0,0,1-10.82-.29,101.16,101.16,0,0,1,10.82-.29A101,101,0,0,1,299.17,103.79Z" transform="translate(-9.22 -74.29)"/>
        <path class="cls-2" d="M299.29,118.7a103,103,0,0,1-10.91.29,102.73,102.73,0,0,1-10.9-.29,102.73,102.73,0,0,1,10.9-.29A103,103,0,0,1,299.29,118.7Z" transform="translate(-9.22 -74.29)"/>
      </g>
      <g>
        <rect class="cls-4" x="268.41" y="70.02" width="21.63" height="41.68"/>
        <path class="cls-2" d="M289.05,186c-.16,0-.29-9.33-.29-20.84s.13-20.84.29-20.84.29,9.33.29,20.84S289.21,186,289.05,186Z" transform="translate(-9.22 -74.29)"/>
        <path class="cls-2" d="M299.26,158.79a101.32,101.32,0,0,1-10.82.29,101,101,0,0,1-10.81-.29,101,101,0,0,1,10.81-.29A101.32,101.32,0,0,1,299.26,158.79Z" transform="translate(-9.22 -74.29)"/>
        <path class="cls-2" d="M299.37,173.7a102.73,102.73,0,0,1-10.9.29,102.84,102.84,0,0,1-10.91-.29,102.84,102.84,0,0,1,10.91-.29A102.73,102.73,0,0,1,299.37,173.7Z" transform="translate(-9.22 -74.29)"/>
      </g>
      <g>
        <rect class="cls-4" x="268.41" y="124.54" width="21.63" height="41.68"/>
        <path class="cls-2" d="M289.05,240.51c-.16,0-.29-9.33-.29-20.84s.13-20.84.29-20.84.29,9.33.29,20.84S289.21,240.51,289.05,240.51Z" transform="translate(-9.22 -74.29)"/>
        <path class="cls-2" d="M299.26,213.31a101.32,101.32,0,0,1-10.82.29,101,101,0,0,1-10.81-.29,101,101,0,0,1,10.81-.29A101.32,101.32,0,0,1,299.26,213.31Z" transform="translate(-9.22 -74.29)"/>
        <path class="cls-2" d="M299.37,228.22a102.73,102.73,0,0,1-10.9.29,102.84,102.84,0,0,1-10.91-.29,102.84,102.84,0,0,1,10.91-.29A102.73,102.73,0,0,1,299.37,228.22Z" transform="translate(-9.22 -74.29)"/>
      </g>
      <g>
        <rect class="cls-4" x="268.41" y="180.64" width="21.63" height="41.68"/>
        <path class="cls-2" d="M289.05,296.61c-.16,0-.29-9.33-.29-20.84s.13-20.85.29-20.85.29,9.33.29,20.85S289.21,296.61,289.05,296.61Z" transform="translate(-9.22 -74.29)"/>
        <path class="cls-2" d="M299.26,269.4a101.32,101.32,0,0,1-10.82.29,101,101,0,0,1-10.81-.29,106.17,106.17,0,0,1,10.81-.28A106.46,106.46,0,0,1,299.26,269.4Z" transform="translate(-9.22 -74.29)"/>
        <path class="cls-2" d="M299.37,284.31a102.73,102.73,0,0,1-10.9.29,102.84,102.84,0,0,1-10.91-.29,102.84,102.84,0,0,1,10.91-.29A102.73,102.73,0,0,1,299.37,284.31Z" transform="translate(-9.22 -74.29)"/>
      </g>
      <rect class="cls-3" x="304.72" width="51.86" height="300.97"/>
      <g class="cls-5">
        <rect x="304.72" width="51.86" height="300.97"/>
      </g>
      <g>
        <rect class="cls-4" x="319.44" y="15.03" width="21.63" height="41.68"/>
        <path class="cls-2" d="M340.09,131c-.16,0-.29-9.34-.29-20.85s.13-20.84.29-20.84.29,9.33.29,20.84S340.25,131,340.09,131Z" transform="translate(-9.22 -74.29)"/>
        <path class="cls-2" d="M350.29,103.79a101,101,0,0,1-10.81.29,101.16,101.16,0,0,1-10.82-.29,101.16,101.16,0,0,1,10.82-.29A101,101,0,0,1,350.29,103.79Z" transform="translate(-9.22 -74.29)"/>
        <path class="cls-2" d="M350.41,118.7a103,103,0,0,1-10.91.29,102.73,102.73,0,0,1-10.9-.29,102.73,102.73,0,0,1,10.9-.29A103,103,0,0,1,350.41,118.7Z" transform="translate(-9.22 -74.29)"/>
      </g>
      <g>
        <rect class="cls-4" x="319.53" y="71.6" width="21.63" height="41.68"/>
        <path class="cls-2" d="M340.17,187.57c-.16,0-.29-9.34-.29-20.85s.13-20.84.29-20.84.29,9.33.29,20.84S340.33,187.57,340.17,187.57Z" transform="translate(-9.22 -74.29)"/>
        <path class="cls-2" d="M350.38,160.36a101.32,101.32,0,0,1-10.82.29,101,101,0,0,1-10.81-.29,101,101,0,0,1,10.81-.29A101.32,101.32,0,0,1,350.38,160.36Z" transform="translate(-9.22 -74.29)"/>
        <path class="cls-2" d="M350.49,175.27a102.73,102.73,0,0,1-10.9.29,102.84,102.84,0,0,1-10.91-.29,102.84,102.84,0,0,1,10.91-.29A102.73,102.73,0,0,1,350.49,175.27Z" transform="translate(-9.22 -74.29)"/>
      </g>
      <g>
        <rect class="cls-4" x="319.53" y="124.54" width="21.63" height="41.68"/>
        <path class="cls-2" d="M340.17,240.51c-.16,0-.29-9.33-.29-20.84s.13-20.84.29-20.84.29,9.33.29,20.84S340.33,240.51,340.17,240.51Z" transform="translate(-9.22 -74.29)"/>
        <path class="cls-2" d="M350.38,213.31a101.32,101.32,0,0,1-10.82.29,101,101,0,0,1-10.81-.29,101,101,0,0,1,10.81-.29A101.32,101.32,0,0,1,350.38,213.31Z" transform="translate(-9.22 -74.29)"/>
        <path class="cls-2" d="M350.49,228.22a102.73,102.73,0,0,1-10.9.29,102.84,102.84,0,0,1-10.91-.29,102.84,102.84,0,0,1,10.91-.29A102.73,102.73,0,0,1,350.49,228.22Z" transform="translate(-9.22 -74.29)"/>
      </g>
      <g>
        <rect class="cls-4" x="320.41" y="181.54" width="21.63" height="41.68"/>
        <path class="cls-2" d="M341.05,297.51c-.16,0-.28-9.33-.28-20.84s.12-20.84.28-20.84.29,9.33.29,20.84S341.21,297.51,341.05,297.51Z" transform="translate(-9.22 -74.29)"/>
        <path class="cls-2" d="M351.26,270.31a101,101,0,0,1-10.81.29,101.16,101.16,0,0,1-10.82-.29,101.16,101.16,0,0,1,10.82-.29A101,101,0,0,1,351.26,270.31Z" transform="translate(-9.22 -74.29)"/>
        <path class="cls-2" d="M351.37,285.22a102.73,102.73,0,0,1-10.9.29,102.73,102.73,0,0,1-10.9-.29,102.73,102.73,0,0,1,10.9-.29A102.73,102.73,0,0,1,351.37,285.22Z" transform="translate(-9.22 -74.29)"/>
      </g>
      <g>
        <rect class="cls-4" x="268.41" y="238.05" width="21.63" height="41.68"/>
        <path class="cls-2" d="M289.05,354c-.16,0-.29-9.34-.29-20.85s.13-20.84.29-20.84.29,9.33.29,20.84S289.21,354,289.05,354Z" transform="translate(-9.22 -74.29)"/>
        <path class="cls-2" d="M299.26,326.82a101.32,101.32,0,0,1-10.82.29,101,101,0,0,1-10.81-.29,101,101,0,0,1,10.81-.29A101.32,101.32,0,0,1,299.26,326.82Z" transform="translate(-9.22 -74.29)"/>
        <path class="cls-2" d="M299.37,341.73a102.73,102.73,0,0,1-10.9.29,102.84,102.84,0,0,1-10.91-.29,102.84,102.84,0,0,1,10.91-.29A102.73,102.73,0,0,1,299.37,341.73Z" transform="translate(-9.22 -74.29)"/>
      </g>
      <g>
        <rect class="cls-4" x="319.53" y="239.84" width="21.63" height="41.68"/>
        <path class="cls-2" d="M340.17,355.81c-.16,0-.29-9.33-.29-20.84s.13-20.84.29-20.84.29,9.33.29,20.84S340.33,355.81,340.17,355.81Z" transform="translate(-9.22 -74.29)"/>
        <path class="cls-2" d="M350.38,328.61a101.32,101.32,0,0,1-10.82.29,101,101,0,0,1-10.81-.29,101,101,0,0,1,10.81-.29A101.32,101.32,0,0,1,350.38,328.61Z" transform="translate(-9.22 -74.29)"/>
        <path class="cls-2" d="M350.49,343.52a102.73,102.73,0,0,1-10.9.29,102.84,102.84,0,0,1-10.91-.29,102.84,102.84,0,0,1,10.91-.29A102.73,102.73,0,0,1,350.49,343.52Z" transform="translate(-9.22 -74.29)"/>
      </g>
    </g>
    <g>
      <g>
        <rect class="cls-6" x="401.21" y="204.83" width="25.22" height="36.45" transform="translate(818.43 371.82) rotate(180)"/>
        <g class="cls-5">
          <rect x="401.21" y="204.83" width="25.22" height="36.45" transform="translate(818.43 371.82) rotate(180)"/>
        </g>
        <rect class="cls-6" x="378.52" y="204.83" width="25.22" height="36.45" transform="translate(773.05 371.82) rotate(180)"/>
        <path class="cls-2" d="M384.55,233.92s0-.12,0-.37,0-.66,0-1.12c0-1,0-2.47,0-4.28,0-3.71-.05-8.92-.09-15V213H396l.18.19h0V219c0,1.89,0,3.71,0,5.47,0,3.5,0,6.7,0,9.47v.14H396l-8.41-.07-2.27,0h-.58c-.13,0-.19,0-.19,0h.22l.61,0,2.3,0,8.32-.07-.14.13c0-2.77,0-6,0-9.47,0-1.76,0-3.58,0-5.47v-5.81h0c-.16-.17.22.21.18.17H384.55l.17-.17c0,6-.06,11.2-.08,14.89,0,1.82,0,3.28-.05,4.31,0,.48,0,.87,0,1.16A1.85,1.85,0,0,1,384.55,233.92Z" transform="translate(-9.22 -74.29)"/>
        <path class="cls-2" d="M386.84,224.66s.28,0,.42.29a.65.65,0,0,1-.06.61.68.68,0,0,1-1.2-.42.68.68,0,0,1,.34-.52c.32-.17.54,0,.5,0s-.19,0-.36.17a.33.33,0,0,0,.1.59c.31.12.48-.16.43-.4S386.83,224.71,386.84,224.66Z" transform="translate(-9.22 -74.29)"/>
      </g>
      <g>
        <rect class="cls-6" x="352.84" y="234.53" width="104.59" height="140.97" transform="translate(801.04 535.73) rotate(180)"/>
        <polygon class="cls-6" points="406.32 301.2 462.42 301.27 462.42 160.24 406.32 160.24 406.32 301.2"/>
        <g class="cls-5">
          <polygon points="406.32 301.2 462.42 301.27 462.42 160.24 406.32 160.24 406.32 301.2"/>
        </g>
        <g>
          <rect class="cls-7" x="360.51" y="311.01" width="19.13" height="19.13" transform="translate(730.93 566.86) rotate(180)"/>
          <path class="cls-3" d="M369.34,332.06c-.1,0-.18-4.95-.18-11s.08-11,.18-11,.18,4.94.18,11S369.44,332.06,369.34,332.06Z" transform="translate(-9.22 -74.29)"/>
          <path class="cls-3" d="M356.92,317.42c0-.1,5.56-.18,12.42-.18s12.43.08,12.43.18-5.56.18-12.43.18S356.92,317.52,356.92,317.42Z" transform="translate(-9.22 -74.29)"/>
        </g>
        <g>
          <rect class="cls-7" x="387.79" y="311.01" width="19.13" height="19.13" transform="translate(785.5 566.86) rotate(180)"/>
          <path class="cls-3" d="M396.63,332.06c-.1,0-.19-4.95-.19-11s.09-11,.19-11,.18,4.94.18,11S396.73,332.06,396.63,332.06Z" transform="translate(-9.22 -74.29)"/>
          <path class="cls-3" d="M384.2,317.42c0-.1,5.56-.18,12.42-.18s12.43.08,12.43.18-5.56.18-12.43.18S384.2,317.52,384.2,317.42Z" transform="translate(-9.22 -74.29)"/>
        </g>
        <g>
          <rect class="cls-7" x="360.51" y="280.79" width="19.13" height="19.13" transform="translate(730.93 506.42) rotate(180)"/>
          <path class="cls-3" d="M369.34,301.84c-.1,0-.18-4.95-.18-11s.08-11,.18-11,.18,4.94.18,11S369.44,301.84,369.34,301.84Z" transform="translate(-9.22 -74.29)"/>
          <path class="cls-3" d="M356.92,287.2c0-.1,5.56-.18,12.42-.18s12.43.08,12.43.18-5.56.18-12.43.18S356.92,287.3,356.92,287.2Z" transform="translate(-9.22 -74.29)"/>
        </g>
        <g>
          <rect class="cls-7" x="387.79" y="280.79" width="19.13" height="19.13" transform="translate(785.5 506.42) rotate(180)"/>
          <path class="cls-3" d="M396.63,301.84c-.1,0-.19-4.95-.19-11s.09-11,.19-11,.18,4.94.18,11S396.73,301.84,396.63,301.84Z" transform="translate(-9.22 -74.29)"/>
          <path class="cls-3" d="M384.2,287.2c0-.1,5.56-.18,12.42-.18s12.43.08,12.43.18-5.56.18-12.43.18S384.2,287.3,384.2,287.2Z" transform="translate(-9.22 -74.29)"/>
        </g>
        <g>
          <rect class="cls-7" x="360.51" y="250.5" width="19.13" height="19.13" transform="translate(730.93 445.84) rotate(180)"/>
          <path class="cls-3" d="M369.34,271.55c-.1,0-.18-4.95-.18-11s.08-11,.18-11,.18,4.94.18,11S369.44,271.55,369.34,271.55Z" transform="translate(-9.22 -74.29)"/>
          <path class="cls-3" d="M356.92,256.91c0-.1,5.56-.18,12.42-.18s12.43.08,12.43.18-5.56.18-12.43.18S356.92,257,356.92,256.91Z" transform="translate(-9.22 -74.29)"/>
        </g>
        <g>
          <rect class="cls-7" x="387.79" y="250.5" width="19.13" height="19.13" transform="translate(785.5 445.84) rotate(180)"/>
          <path class="cls-3" d="M396.63,271.55c-.1,0-.19-4.95-.19-11s.09-11,.19-11,.18,4.94.18,11S396.73,271.55,396.63,271.55Z" transform="translate(-9.22 -74.29)"/>
          <path class="cls-3" d="M384.2,256.91c0-.1,5.56-.18,12.42-.18s12.43.08,12.43.18-5.56.18-12.43.18S384.2,257,384.2,256.91Z" transform="translate(-9.22 -74.29)"/>
        </g>
        <g>
          <g class="cls-8">
            <rect class="cls-4" x="434.76" y="250.5" width="19.13" height="19.13" transform="translate(879.43 445.84) rotate(180)"/>
          </g>
          <path class="cls-2" d="M444.32,271.55c-.1,0-.18-4.95-.18-11s.08-11,.18-11,.18,4.94.18,11S444.42,271.55,444.32,271.55Z" transform="translate(-9.22 -74.29)"/>
          <path class="cls-2" d="M431.16,256.91c0-.1,5.57-.18,12.43-.18s12.42.08,12.42.18-5.56.18-12.42.18S431.16,257,431.16,256.91Z" transform="translate(-9.22 -74.29)"/>
        </g>
        <g>
          <g class="cls-8">
            <rect class="cls-4" x="434.76" y="281.09" width="19.13" height="19.13" transform="translate(879.43 507.02) rotate(180)"/>
          </g>
          <path class="cls-2" d="M444.32,302.14c-.1,0-.18-4.95-.18-11s.08-11,.18-11,.18,4.94.18,11S444.42,302.14,444.32,302.14Z" transform="translate(-9.22 -74.29)"/>
          <path class="cls-2" d="M431.16,287.5c0-.1,5.57-.18,12.43-.18s12.42.08,12.42.18-5.56.18-12.42.18S431.16,287.6,431.16,287.5Z" transform="translate(-9.22 -74.29)"/>
        </g>
        <g>
          <g class="cls-8">
            <rect class="cls-4" x="434.76" y="311.67" width="19.13" height="19.13" transform="translate(879.43 568.19) rotate(180)"/>
          </g>
          <path class="cls-2" d="M444.32,332.72c-.1,0-.18-4.94-.18-11s.08-11,.18-11,.18,4.95.18,11S444.42,332.72,444.32,332.72Z" transform="translate(-9.22 -74.29)"/>
          <path class="cls-2" d="M431.16,318.09c0-.1,5.57-.18,12.43-.18s12.42.08,12.42.18-5.56.18-12.42.18S431.16,318.19,431.16,318.09Z" transform="translate(-9.22 -74.29)"/>
        </g>
      </g>
      <path class="cls-2" d="M374.49,374.86s0-.06,0-.17,0-.3,0-.51q0-.71,0-1.95c0-1.73,0-4.2-.05-7.28,0-6.23,0-14.91-.07-24.86v-.17h20v.17c0,10,0,18.79-.06,25.08,0,3.11,0,5.61,0,7.35,0,.85,0,1.5,0,2,0,.21,0,.38,0,.51s0,.17,0,.17a1.15,1.15,0,0,1,0-.17c0-.13,0-.3,0-.51,0-.48,0-1.13,0-2,0-1.74,0-4.24,0-7.35,0-6.29,0-15.05-.06-25.08l.17.18h-19.6l.18-.18c0,10-.05,18.63-.07,24.86,0,3.08,0,5.55-.05,7.28q0,1.25,0,1.95c0,.21,0,.38,0,.51S374.49,374.86,374.49,374.86Z" transform="translate(-9.22 -74.29)"/>
      <g>
        <rect class="cls-1" x="384.94" y="342.16" width="6.68" height="15.99" transform="translate(767.35 626.02) rotate(180)"/>
        <path class="cls-2" d="M391.65,358.17h-6.72v-16h6.72Zm-6.69,0h6.65v-16H385Z" transform="translate(-9.22 -74.29)"/>
      </g>
      <g>
        <rect class="cls-1" x="376.96" y="342.16" width="6.68" height="15.99" transform="translate(751.38 626.02) rotate(180)"/>
        <path class="cls-2" d="M383.66,358.17h-6.72v-16h6.72Zm-6.69,0h6.65v-16H377Z" transform="translate(-9.22 -74.29)"/>
      </g>
      <path class="cls-2" d="M376.82,359.81c0,.05-.33.05-.48.43a.79.79,0,0,0,0,.64.65.65,0,0,0,.64.32.67.67,0,0,0,.48-.54.61.61,0,0,0-.22-.58c-.32-.26-.62-.2-.63-.25s.31-.24.78.05a.85.85,0,0,1,.4.82A.92.92,0,0,1,376,361a1,1,0,0,1,.07-.91.72.72,0,0,1,.49-.36C376.75,359.75,376.82,359.78,376.82,359.81Z" transform="translate(-9.22 -74.29)"/>
      <path class="cls-2" d="M356.26,340.09a1.76,1.76,0,0,1,0-.22c0-.19,0-.41,0-.67,0-.66,0-1.51,0-2.55v0h.05l11.16,0,.07.07h0v3.48h-.07l-8,0-2.33,0h0l2.35,0,8,0-.07.07v-3.41h0c.14.15,0,0,.07.08l-11.16,0,0-.05c0,1,0,1.87,0,2.52,0,.26,0,.49,0,.68S356.26,340.09,356.26,340.09Z" transform="translate(-9.22 -74.29)"/>
      <path class="cls-2" d="M399.68,333a2.07,2.07,0,0,1,0-.23c0-.19,0-.41,0-.67,0-.65,0-1.5,0-2.54v-.05h.05l11.16,0s-.07-.08.07.07h0v3.5h-.07l-8,0-2.33,0h0l2.34,0,8,0-.07.08v-3.43h0l.07.07-11.16,0,0,0c0,1,0,1.87,0,2.51,0,.27,0,.49,0,.68S399.68,333,399.68,333Z" transform="translate(-9.22 -74.29)"/>
      <path class="cls-2" d="M406.64,305s0-.07,0-.22v-.67c0-.65,0-1.5,0-2.55v0h0l11.16,0,.08.07h0v3.48h-.07l-8,0-2.33,0h0l2.34,0,8,0-.07.07c0-.54,0-1.11,0-1.68v-1.73h0c.15.15,0,0,.07.08l-11.16,0,.05-.05c0,1,0,1.88,0,2.52v.68A2.17,2.17,0,0,1,406.64,305Z" transform="translate(-9.22 -74.29)"/>
      <path class="cls-2" d="M366.51,274.9v-.23c0-.19,0-.41,0-.67,0-.65,0-1.5,0-2.54v0h0l11.17,0,.07.07h0V275h-.07l-8,0-2.33,0h0l2.34,0,8,0-.07.08c0-.55,0-1.11,0-1.69v-1.74h0l.08.07-11.17,0,.05,0c0,1,0,1.87,0,2.51l0,.68C366.52,274.81,366.51,274.9,366.51,274.9Z" transform="translate(-9.22 -74.29)"/>
      <path class="cls-2" d="M398.28,242.76a1.76,1.76,0,0,1,0-.22c0-.19,0-.41,0-.67q0-1,0-2.55v0h0l11.16,0,.07.07h0v3.48h-.07l-8,0-2.33,0h0l2.34,0,8,0-.07.07v-3.41h0c.14.15,0,0,.07.08l-11.16,0,0-.05c0,1,0,1.88,0,2.52,0,.26,0,.49,0,.68S398.28,242.76,398.28,242.76Z" transform="translate(-9.22 -74.29)"/>
      <path class="cls-2" d="M359.75,278.22a1.76,1.76,0,0,1,0-.22v-.67c0-.65,0-1.5,0-2.54v-.05h.05l11.16,0s-.07-.07.08.08h0v1.73c0,.58,0,1.14,0,1.68v.07h-.07l-8,0-2.32,0h0l2.34,0,8,0-.07.07v-3.41h0l.07.07-11.16,0,.05,0c0,1,0,1.87,0,2.51,0,.27,0,.49,0,.68A2.17,2.17,0,0,1,359.75,278.22Z" transform="translate(-9.22 -74.29)"/>
      <path class="cls-2" d="M411.43,308.37s0-.07,0-.22,0-.41,0-.67c0-.66,0-1.51,0-2.55v0h0l11.16,0,.08.07h0v1.73c0,.57,0,1.13,0,1.68v.07h-.07l-8,0-2.32,0h0l2.34,0,8,0-.07.07V305h0l.07.07-11.16,0,.05-.05q0,1.54,0,2.52c0,.26,0,.48,0,.68S411.43,308.37,411.43,308.37Z" transform="translate(-9.22 -74.29)"/>
      <path class="cls-2" d="M406.64,246.2s0-.07,0-.22v-.67c0-.66,0-1.51,0-2.55v0h0l11.16,0,.08.07h0v3.48h-.07l-8,0-2.33,0h0l2.34,0,8,0-.07.07c0-.55,0-1.11,0-1.68v-1.73h0l.07.07-11.16,0,.05-.05q0,1.55,0,2.52V246C406.65,246.11,406.64,246.2,406.64,246.2Z" transform="translate(-9.22 -74.29)"/>
      <path class="cls-2" d="M352.64,343.53a1.76,1.76,0,0,1,0-.22c0-.19,0-.41,0-.67,0-.65,0-1.5,0-2.55v0h.05l11.16,0,.07.07h0v3.48h-.07l-8,0-2.33,0h0l2.35,0,8,0-.07.07v-1.68c0-.29,0-.58,0-.87v-.86h0l.08.08-11.16,0,0-.05c0,1,0,1.88,0,2.52,0,.26,0,.49,0,.68Z" transform="translate(-9.22 -74.29)"/>
    </g>
  </g>
  <g id="Address">
    <g>
      <g>
        <polygon class="cls-4" points="440.19 40.01 343.81 40.01 343.81 107.09 379.85 107.09 392.15 120.46 404.39 107.09 440.19 107.09 440.19 40.01"/>
        <path class="cls-2" d="M449.4,114.3s0,.39,0,1.18,0,2,0,3.5c0,3.1,0,7.63.05,13.44,0,11.68.06,28.46.11,49v.2h-.21l-35.79,0,.17-.08-12.23,13.38-.18.2-.18-.2-12.31-13.37.19.08h-36.3v-.26c0-24.09,0-46.86,0-67.08v-.24H353l69.69.12,19.71.06,5.2,0H449l.44,0h-.46l-1.36,0-5.25,0-19.76.07-69.54.11.23-.23c0,20.22,0,43,0,67.08l-.26-.26h36.16l.07.08,12.29,13.38h-.36l12.24-13.37.07-.07h.11l35.79,0-.2.21c0-20.44.08-37.18.11-48.83,0-5.83,0-10.38.05-13.49,0-1.54,0-2.72,0-3.54S449.4,114.3,449.4,114.3Z" transform="translate(-9.22 -74.29)"/>
      </g>
      <g>
        <path class="cls-6" d="M400.83,120.46A20.52,20.52,0,0,0,384.66,153h0l.2.27,0,0L399.41,173a3.12,3.12,0,0,0,5.1-.11l13.14-19.53c2.48-3.79,4.19-7.75,4.19-12.42A20.52,20.52,0,0,0,400.83,120.46Zm.49,35.44a15.43,15.43,0,1,1,15.43-15.43A15.43,15.43,0,0,1,401.32,155.9Z" transform="translate(-9.22 -74.29)"/>
        <g class="cls-5">
          <path d="M400.83,120.46A20.52,20.52,0,0,0,384.66,153h0l.2.27,0,0L399.41,173a3.12,3.12,0,0,0,5.1-.11l13.14-19.53c2.48-3.79,4.19-7.75,4.19-12.42A20.52,20.52,0,0,0,400.83,120.46Zm.49,35.44a15.43,15.43,0,1,1,15.43-15.43A15.43,15.43,0,0,1,401.32,155.9Z" transform="translate(-9.22 -74.29)"/>
        </g>
        <path class="cls-6" d="M399.61,120.46A20.52,20.52,0,0,0,383.44,153h0l.2.27,0,0L398.19,173a3.13,3.13,0,0,0,5.11-.11l13.13-19.53c2.49-3.79,4.19-7.75,4.19-12.42A20.52,20.52,0,0,0,399.61,120.46Zm.49,32.66a11.69,11.69,0,1,1,11.68-11.69A11.69,11.69,0,0,1,400.1,153.12Z" transform="translate(-9.22 -74.29)"/>
      </g>
    </g>
  </g>
  <g id="Character">
    <polygon class="cls-1" points="97.41 357.49 0 357.49 5.49 352.07 100.62 352.07 97.41 357.49"/>
    <g>
      <path class="cls-2" d="M188.45,317.62a10.77,10.77,0,0,0,1.74-1.06c1.05-.7,2.48-1.68,4-2.79l.79-.56-.29-.07c.84,1.47,1.59,2.76,2.15,3.67a7.89,7.89,0,0,0,1,1.43,7.2,7.2,0,0,0-.73-1.56c-.49-.95-1.21-2.27-2-3.74l-.12-.2-.18.13-.8.56c-1.56,1.11-3,2.13-4,2.89A9.4,9.4,0,0,0,188.45,317.62Z" transform="translate(-9.22 -74.29)"/>
      <g>
        <g>
          <circle class="cls-2" cx="269.52" cy="425.79" r="32.71" transform="matrix(0.07, -1, 1, 0.07, -182.93, 591.26)"/>
          <path class="cls-2" d="M236.82,425.23v.09a32.71,32.71,0,0,0,65.41.94s0-.06,0-.08Z" transform="translate(-9.22 -74.29)"/>
          <path class="cls-9" d="M246.56,425.46a23,23,0,1,0,23.29-22.63A23,23,0,0,0,246.56,425.46Z" transform="translate(-9.22 -74.29)"/>
          <path class="cls-1" d="M269.85,402.83a23,23,0,0,0-23.29,22.63l45.92.66A23,23,0,0,0,269.85,402.83Z" transform="translate(-9.22 -74.29)"/>
          <path class="cls-2" d="M255.53,425.59a14,14,0,1,0,14.19-13.79A14,14,0,0,0,255.53,425.59Z" transform="translate(-9.22 -74.29)"/>
        </g>
        <path class="cls-3" d="M254,377.83s33.49-10.13,47.35,26.25l-70.08,21.71Z" transform="translate(-9.22 -74.29)"/>
        <g>
          <path class="cls-2" d="M35,425.32a32.71,32.71,0,1,0,33.17-32.24A32.7,32.7,0,0,0,35,425.32Z" transform="translate(-9.22 -74.29)"/>
          <path class="cls-2" d="M35,425.23v.09a32.71,32.71,0,0,0,65.41.94s0-.06,0-.08Z" transform="translate(-9.22 -74.29)"/>
          <path class="cls-9" d="M44.74,425.46A23,23,0,1,0,68,402.83,23,23,0,0,0,44.74,425.46Z" transform="translate(-9.22 -74.29)"/>
          <path class="cls-1" d="M68,402.83a23,23,0,0,0-23.29,22.63l45.92.66A23,23,0,0,0,68,402.83Z" transform="translate(-9.22 -74.29)"/>
          <path class="cls-2" d="M53.71,425.59A14,14,0,1,0,67.9,411.8,14,14,0,0,0,53.71,425.59Z" transform="translate(-9.22 -74.29)"/>
        </g>
        <path class="cls-3" d="M114.23,412.66C114,412.75,97,410,97,410h0a10.4,10.4,0,0,1-7.77,4.07c-7.35.35-14.55.68-20.78,1A10.54,10.54,0,0,0,58.4,426h0a10.57,10.57,0,0,0,10.13,10.11l36.22,1.42c6,.24,13.88-3.38,17.6-8h0Z" transform="translate(-9.22 -74.29)"/>
        <path class="cls-3" d="M25.24,398.18s-1.56-31.87,28.4-38.52v-4.08H158.58v9.74s-15.4,18.55-10.37,33.95,6.6,17,6.6,17h59.73a40.88,40.88,0,0,0,7.54-22.64c.32-13.51-5.3-36.63-9.49-51.4-3.81-13.44-6.22-24.67-6.22-24.67l17.91-6s33.16,43.35,34.51,45.79,6,8.12,4.88,20.58-30.88,50.92-38.73,55.26S210,437.8,203,438.89c-6.12.94-51.33.31-63.16.13a23.13,23.13,0,0,1-11.68-3.24c-3.54-2.14-6.2-5.69-9.13-11.52l-6.23-12.19Z" transform="translate(-9.22 -74.29)"/>
        <path class="cls-3" d="M33.27,396,20.05,416.67A3.22,3.22,0,0,0,24,421.4a15,15,0,0,0,4.43-3c6.05-5.76,16.83-20.91,16.83-20.91Z" transform="translate(-9.22 -74.29)"/>
        <path class="cls-2" d="M128.06,399.69a1.81,1.81,0,0,1,.07-.3q.1-.31.27-.87a22.39,22.39,0,0,0,.69-3.41,24.07,24.07,0,0,0-2-12.5,26.37,26.37,0,0,0-4.87-7.32,32.1,32.1,0,0,0-8-6.13,40.4,40.4,0,0,0-10.48-3.9,55,55,0,0,0-12-1.24,92,92,0,0,0-12,.88c-3.87.53-7.59,1.17-11.09,2a65.44,65.44,0,0,0-17.8,6.58,44.36,44.36,0,0,0-10.17,7.76c-1.06,1.09-1.81,2-2.32,2.62l-.57.71a1.67,1.67,0,0,1-.2.23,26.67,26.67,0,0,1,3-3.67,43.11,43.11,0,0,1,10.15-7.9,64.6,64.6,0,0,1,17.86-6.71c3.51-.81,7.23-1.46,11.11-2a91.07,91.07,0,0,1,12.1-.9,54.64,54.64,0,0,1,12.06,1.26,41.21,41.21,0,0,1,10.58,4,32.37,32.37,0,0,1,8.1,6.23,26.31,26.31,0,0,1,4.89,7.44,24,24,0,0,1,1.93,12.64,20.65,20.65,0,0,1-.77,3.42l-.31.86A2.73,2.73,0,0,1,128.06,399.69Z" transform="translate(-9.22 -74.29)"/>
        <path class="cls-10" d="M122,392.54c-.05,0,.17-.51.4-1.42a10.39,10.39,0,0,0,.11-4,16.36,16.36,0,0,0-1.94-5.55,19.12,19.12,0,0,0-1.94-2.91A17.85,17.85,0,0,0,116,376a23.09,23.09,0,0,0-6.24-3.65,29.25,29.25,0,0,0-5.73-1.56,38.78,38.78,0,0,0-4-.46,11.22,11.22,0,0,1-1.48-.11,1.47,1.47,0,0,1,.39,0c.25,0,.62,0,1.1,0a30,30,0,0,1,4,.33,28.34,28.34,0,0,1,5.82,1.49,23,23,0,0,1,6.37,3.69,17.63,17.63,0,0,1,2.65,2.76,20,20,0,0,1,2,3,16.29,16.29,0,0,1,1.91,5.7,9.89,9.89,0,0,1-.26,4.05,5.33,5.33,0,0,1-.38,1A2,2,0,0,1,122,392.54Z" transform="translate(-9.22 -74.29)"/>
        <g class="cls-11">
          <path d="M101.46,364.61a42,42,0,0,1,15.8,6.43,28,28,0,0,1,10.59,13.15c2.09,5.39,1.78,12.53-.43,17l7.42.61c2.5-8.32-.22-18.54-6.22-25.06a36.84,36.84,0,0,0-27.16-12.13" transform="translate(-9.22 -74.29)"/>
        </g>
        <path class="cls-2" d="M158.53,359.29c0,.12-23.59.21-52.68.21s-52.68-.09-52.68-.21,23.59-.21,52.68-.21S158.53,359.18,158.53,359.29Z" transform="translate(-9.22 -74.29)"/>
        <path class="cls-3" d="M158.58,355.58a9.13,9.13,0,0,0,1.9-4.7c.16-2.64-1-5.94-3.87-5.94H120.37a10.63,10.63,0,0,0-10.63,10.64h48.84Z" transform="translate(-9.22 -74.29)"/>
        <path class="cls-3" d="M206.37,317.54l-6.31-13.14a8,8,0,0,1,3.19-10.28l18.84-11.24a6.35,6.35,0,0,1,3.26-.9h4.07l1.64,26.56L224.77,311l4,6.46Z" transform="translate(-9.22 -74.29)"/>
        <g>
          <path class="cls-4" d="M229.48,282.94s6.45,1.48,7.26,11.42-5.68,13-5.68,13Z" transform="translate(-9.22 -74.29)"/>
          <path class="cls-2" d="M229.48,282.94a2.26,2.26,0,0,1,.07.53l.12,1.43c.11,1.3.24,3.06.41,5.22.34,4.4.79,10.45,1.23,17.26l-.37-.22a8.45,8.45,0,0,0,1.89-1.41,11.45,11.45,0,0,0,2.84-4.43,15.35,15.35,0,0,0,.89-4.87,18.61,18.61,0,0,0-1.59-8.24,10.72,10.72,0,0,0-3.63-4.3,11.62,11.62,0,0,0-1.86-1,1.81,1.81,0,0,1,.54.12,7.83,7.83,0,0,1,1.43.68,10.45,10.45,0,0,1,3.85,4.31,18.53,18.53,0,0,1,1.74,8.41,15.4,15.4,0,0,1-.89,5,12,12,0,0,1-3,4.63,9.05,9.05,0,0,1-2,1.5l-.35.18,0-.4c-.44-6.93-.78-13.1-1-17.49-.1-2.13-.19-3.87-.25-5.16l-.06-1.37A2.42,2.42,0,0,1,229.48,282.94Z" transform="translate(-9.22 -74.29)"/>
        </g>
        <path class="cls-2" d="M206.27,299.57S189.1,307.71,187,309c-1.45.93-2.7,2.55-1.56,5.41,1.95,4.86,10,.29,10,.29l16-8s6.14-2.91,3.87-6.53C212.73,296.15,206.27,299.57,206.27,299.57Z" transform="translate(-9.22 -74.29)"/>
        <ellipse class="cls-2" cx="194.88" cy="205.66" rx="5.09" ry="8.97"/>
        <path class="cls-2" d="M204.93,286.11l2.8,9.69a2.5,2.5,0,0,0,1.3-2.86c-.7-3.32-1.1-5.68-1.87-8.59-.09-.29-2.23,1.76-2.23,1.76" transform="translate(-9.22 -74.29)"/>
        <g class="cls-5">
          <path d="M149.59,403.41c-.28-.8-.56-1.61-.83-2.45s-.54-1.59-.75-2.37a24,24,0,0,1-.7-3.65c-4.72,19.21,2.48,32.74,14.86,33.69,18.07,1.39,40.11,2.4,49,.06,16.25-4.26,22.21-17.81,23.63-20s14.35-25.86,6.43-48.6-21.72-46.9-21.73-46.9l-13.15,4.39s2.41,11.23,6.22,24.67c4.19,14.77,9.81,37.89,9.49,51.4a40.88,40.88,0,0,1-7.54,22.64H154.81s-1.28-1.28-5.22-12.84" transform="translate(-9.22 -74.29)"/>
        </g>
        <path class="cls-3" d="M22.85,393.18l.42-4.56,109,12.56a10.78,10.78,0,0,1,9.35,12.58l-.49,2.76L28.32,400.12A6.42,6.42,0,0,1,22.85,393.18Z" transform="translate(-9.22 -74.29)"/>
        <g class="cls-5">
          <path d="M22.85,393.18l.42-4.56,109,12.56a10.78,10.78,0,0,1,9.35,12.58l-.49,2.76L28.32,400.12A6.42,6.42,0,0,1,22.85,393.18Z" transform="translate(-9.22 -74.29)"/>
        </g>
        <g class="cls-5">
          <path d="M234.82,423.68s24-26.39,28.95-47.15a47.25,47.25,0,0,1,7.43.55S257,415.66,234.82,423.68Z" transform="translate(-9.22 -74.29)"/>
        </g>
        <path class="cls-2" d="M263.42,367.23a3.43,3.43,0,0,1,.13.67c.06.44.19,1.08.28,1.93a30.34,30.34,0,0,1-.19,7.16,36.47,36.47,0,0,1-3.17,10.15,113.74,113.74,0,0,1-6.35,11.35,151.68,151.68,0,0,1-14.05,19c-1.95,2.31-3.56,4.15-4.69,5.41l-1.29,1.45a3.9,3.9,0,0,1-.48.49,3.74,3.74,0,0,1,.41-.54l1.24-1.5,4.59-5.5a163.79,163.79,0,0,0,13.91-19A121.6,121.6,0,0,0,260.13,387a37.27,37.27,0,0,0,3.22-10,31.17,31.17,0,0,0,.31-7.11c-.05-.84-.16-1.49-.19-1.93A4.29,4.29,0,0,1,263.42,367.23Z" transform="translate(-9.22 -74.29)"/>
        <path class="cls-2" d="M221.93,423.49a64.23,64.23,0,0,1-7.39-7.24,32.38,32.38,0,0,1,3.84,3.47A31.65,31.65,0,0,1,221.93,423.49Z" transform="translate(-9.22 -74.29)"/>
        <path class="cls-2" d="M150.71,422.68a11.06,11.06,0,0,1,1.76-3.42,11.59,11.59,0,0,1,2.52-2.9c.1.08-1,1.4-2.17,3.13S150.82,422.73,150.71,422.68Z" transform="translate(-9.22 -74.29)"/>
        <path class="cls-2" d="M104.6,437.92a16.18,16.18,0,0,0,3.27-4.16,14.39,14.39,0,0,0,1.61-5.48,12.72,12.72,0,0,0-5.74-12,14.26,14.26,0,0,0-5.27-2.2,15.88,15.88,0,0,0-5.29-.07s.12-.05.36-.11a7,7,0,0,1,1-.2,12.36,12.36,0,0,1,3.94.09,14.28,14.28,0,0,1,5.42,2.17,12.89,12.89,0,0,1,5.91,12.39,14.22,14.22,0,0,1-1.73,5.58,12.64,12.64,0,0,1-2.4,3.12c-.33.33-.64.53-.82.69A1.37,1.37,0,0,1,104.6,437.92Z" transform="translate(-9.22 -74.29)"/>
        <path class="cls-2" d="M64.79,429.56a17.61,17.61,0,0,1-.39-3.84,18.84,18.84,0,0,1,0-3.87,17.65,17.65,0,0,1,.39,3.85A18,18,0,0,1,64.79,429.56Z" transform="translate(-9.22 -74.29)"/>
        <path class="cls-2" d="M67.68,429.57a18.72,18.72,0,0,1-.7-3.84,19.06,19.06,0,0,1-.29-3.89,17.79,17.79,0,0,1,.7,3.84A17.49,17.49,0,0,1,67.68,429.57Z" transform="translate(-9.22 -74.29)"/>
        <path class="cls-2" d="M112.64,355.58c0,.11-13.25.21-29.6.21s-29.61-.1-29.61-.21,13.26-.21,29.61-.21S112.64,355.46,112.64,355.58Z" transform="translate(-9.22 -74.29)"/>
      </g>
      <path class="cls-3" d="M43.24,448a2.19,2.19,0,0,1-.35-.35c-.21-.24-.55-.59-.93-1.08a31,31,0,0,1-3-4.33,33.18,33.18,0,0,1,.13-33.18,30.46,30.46,0,0,1,3-4.31c.38-.49.73-.83.94-1.07a2.46,2.46,0,0,1,.36-.35,2.65,2.65,0,0,1-.29.4c-.2.26-.52.62-.88,1.12a33.75,33.75,0,0,0-2.86,4.35,33.73,33.73,0,0,0-.14,32.89,34.89,34.89,0,0,0,2.83,4.38c.35.51.67.86.86,1.13A2.15,2.15,0,0,1,43.24,448Z" transform="translate(-9.22 -74.29)"/>
      <path class="cls-12" d="M148.87,351" transform="translate(-9.22 -74.29)"/>
      <path class="cls-2" d="M118.07,318.91" transform="translate(-9.22 -74.29)"/>
      <path class="cls-13" d="M155,435s.92,21.39.94,22.42l4.54,3.44,10.89-2.71-1-23.64Z" transform="translate(-9.22 -74.29)"/>
      <g>
        <g>
          <path class="cls-13" d="M185,246.8l11.39,6.09L215.44,239l5.54,9.56s-11.6,11.19-15.72,15-6.82,5.84-9.83,5.25-19.77-9.9-19.77-9.9S180.54,247,185,246.8Z" transform="translate(-9.22 -74.29)"/>
          <path class="cls-14" d="M196.45,257.13s.07.07.11.19l0,.1v0h-.25v-.09l0-.3a15.2,15.2,0,0,1-.11-1.72,6.2,6.2,0,0,1,.21-2.45,5.68,5.68,0,0,1,.31,2.44c0,.67,0,1.28-.05,1.73l0,.3v.09h0c-.52,0-.15,0-.26,0h0l0-.11C196.38,257.2,196.42,257.13,196.45,257.13Z" transform="translate(-9.22 -74.29)"/>
          <g>
            <path class="cls-13" d="M217.81,251.16c.38.12,3.93-3.71,3.93-3.71s6.65-.12,8.24-1,4-4.16,4-4.16l-3.21-9.78a76.54,76.54,0,0,0-8.85,1.1c-2.12.59-7.19,5.9-7.19,5.9l-2.18,3.39S211.87,249.33,217.81,251.16Z" transform="translate(-9.22 -74.29)"/>
            <g>
              <path class="cls-13" d="M229.05,247a22.08,22.08,0,0,0,2.43-.31c1.6-.27,3.25-.41,3.2-2a1.84,1.84,0,0,0-.61-1.4s1.18-.49,1.17-1.38a1.64,1.64,0,0,0-.69-1.32s1.63-.75,1.68-2.07a2.63,2.63,0,0,0-1.42-2.37s5-1.43,5.4-1.59c1.42-.58,4.13-1.87,3-2.93-.41-.39-.57-.82-3.43-.47-2.6.31-6.69,1.27-6.69,1.27s-3.5.17-5.34.36A39.88,39.88,0,0,0,221,234c-2.36,1.09-4.42,4.19-4.42,4.19l5.19,9.26Z" transform="translate(-9.22 -74.29)"/>
              <path class="cls-14" d="M233.68,243.25a9,9,0,0,0-1.41-.08l-1.53,0a5.8,5.8,0,0,0-.91,0,1.62,1.62,0,0,0-.92.44,1,1,0,0,0-.3,1,1.28,1.28,0,0,0,.61.73,3.93,3.93,0,0,0,.75.36l.66.25c.42.15.75.25,1,.31s.37.09.37.07-.5-.2-1.3-.52a9.54,9.54,0,0,1-1.36-.64,1.11,1.11,0,0,1-.51-.62.78.78,0,0,1,.25-.77,1.48,1.48,0,0,1,.79-.39,5.32,5.32,0,0,1,.88,0l1.53,0A8.85,8.85,0,0,0,233.68,243.25Z" transform="translate(-9.22 -74.29)"/>
              <path class="cls-14" d="M228.22,236.42a3.54,3.54,0,0,0,1.34-1,3.36,3.36,0,0,0,.93-1.38c-.05,0-.46.58-1.09,1.23S228.18,236.37,228.22,236.42Z" transform="translate(-9.22 -74.29)"/>
              <g>
                <path class="cls-13" d="M224,234.11a7.08,7.08,0,0,1,3.47,2,13.41,13.41,0,0,1,2.3,3.32c.5,1,.93,2.15.38,3.08a2.31,2.31,0,0,1-3,.64,5.38,5.38,0,0,1-2.16-2.47,13.74,13.74,0,0,0-1.68-2.88" transform="translate(-9.22 -74.29)"/>
                <path class="cls-14" d="M223.38,237.79s.18.23.47.69a22.43,22.43,0,0,1,1,2,9.18,9.18,0,0,0,.8,1.38,4.28,4.28,0,0,0,1.34,1.26,2.77,2.77,0,0,0,2,.29,2.15,2.15,0,0,0,1-.53,1.84,1.84,0,0,0,.51-1,3.81,3.81,0,0,0-.43-2.15,18.32,18.32,0,0,0-1-1.76,10.27,10.27,0,0,0-2.24-2.56,6.75,6.75,0,0,0-2-1.12,3.47,3.47,0,0,0-.61-.16q-.21,0-.21,0s.29.08.79.27a7.35,7.35,0,0,1,1.94,1.16,10.27,10.27,0,0,1,2.17,2.55,19.09,19.09,0,0,1,.95,1.74,3.55,3.55,0,0,1,.41,2,1.67,1.67,0,0,1-.44.9,1.91,1.91,0,0,1-.87.47,2.53,2.53,0,0,1-1.86-.25,4.23,4.23,0,0,1-1.29-1.19,9.76,9.76,0,0,1-.81-1.34,18.53,18.53,0,0,0-1.11-2c-.15-.22-.29-.38-.38-.49S223.38,237.78,223.38,237.79Z" transform="translate(-9.22 -74.29)"/>
              </g>
              <g>
                <path class="cls-13" d="M233.53,243.25a60,60,0,0,0-6.14.32,3.3,3.3,0,0,1-1.74-.15c-.43-.21-.59-1.29-.7-1.75l7.52-1.17" transform="translate(-9.22 -74.29)"/>
                <path class="cls-14" d="M232.47,240.5a3.11,3.11,0,0,0-.58.05l-1.6.22-5.36.79-.11,0,0,.12c.08.34.15.72.27,1.09a1.93,1.93,0,0,0,.2.44.9.9,0,0,0,.15.19.8.8,0,0,0,.22.14,2.33,2.33,0,0,0,.89.16c.59,0,1.13-.08,1.65-.12,1-.09,2-.17,2.76-.22s1.42-.07,1.87-.09a4.59,4.59,0,0,0,.68,0,3.69,3.69,0,0,0-.68-.05c-.45,0-1.09,0-1.88,0s-1.73.09-2.77.17c-.52,0-1.07.11-1.62.1a2,2,0,0,1-.81-.15c-.24-.08-.35-.36-.45-.63s-.18-.72-.26-1.07l-.09.13c2.12-.33,4-.64,5.34-.87l1.59-.28A3.7,3.7,0,0,0,232.47,240.5Z" transform="translate(-9.22 -74.29)"/>
              </g>
              <g>
                <path class="cls-13" d="M234.66,240.08l-7.83,1.5a5,5,0,0,1-1.68.13,1.71,1.71,0,0,1-1.34-.9,1.75,1.75,0,0,1,.73-2,5.53,5.53,0,0,1,2.19-.74,46.93,46.93,0,0,0,7-1.95" transform="translate(-9.22 -74.29)"/>
                <path class="cls-14" d="M233.71,236.09a1,1,0,0,0-.23.06l-.65.21c-.56.17-1.37.43-2.38.7s-2.23.58-3.59.85a7.18,7.18,0,0,0-2.12.62,2.21,2.21,0,0,0-.87.82,1.77,1.77,0,0,0-.26,1.22,1.53,1.53,0,0,0,.76,1,2.38,2.38,0,0,0,1.16.29,14.11,14.11,0,0,0,2.17-.33l3.63-.72,2.44-.5.66-.15.23-.07a.87.87,0,0,0-.24,0l-.67.11-2.45.43-3.64.68a13.33,13.33,0,0,1-2.13.31,2.12,2.12,0,0,1-1.05-.26,1.3,1.3,0,0,1-.65-.85,1.54,1.54,0,0,1,.23-1.06,2.05,2.05,0,0,1,.78-.74,7.05,7.05,0,0,1,2.06-.61c1.36-.28,2.58-.6,3.59-.89s1.82-.58,2.37-.78l.63-.25Z" transform="translate(-9.22 -74.29)"/>
              </g>
            </g>
            <path class="cls-14" d="M219,242s.11.23.41.5a3.55,3.55,0,0,0,1.38.71,3.46,3.46,0,0,0,1.55.06c.39-.08.61-.19.6-.22a5.78,5.78,0,0,1-2.09-.05A5.44,5.44,0,0,1,219,242Z" transform="translate(-9.22 -74.29)"/>
          </g>
        </g>
        <path class="cls-13" d="M176.63,297.4s19,3.51,20.32,3.87,6.75,2.92,7,4.56a48.22,48.22,0,0,1,0,6.48s-1,.79-1.58-.79a16.09,16.09,0,0,1-.51-4.71l-3-1.16,1.64,2.92.27,6.84s-2.1-.19-2.51-1.83a16.12,16.12,0,0,1-.4-3.46l-2.2-1.86,1.65,2.23.55,4.92s-1.6.52-2.11-.57a17.14,17.14,0,0,1-.54-4.35l-6.2-2.17-4.1,2.29-4.45-2.44a4.86,4.86,0,0,1-2.42-3.33Z" transform="translate(-9.22 -74.29)"/>
        <g>
          <g>
            <g>
              <path class="cls-13" d="M138.69,203l.63,33.15a10.32,10.32,0,0,0,9.77,10.11h0a10.32,10.32,0,0,0,10.85-10.44c0-3.16-.1-5.74-.1-5.74s8.06-.83,8.58-8.82c.29-4.62,0-15.14-.23-23.2a10.5,10.5,0,0,0-10-10.14l-4.83-.25A14.83,14.83,0,0,0,138.69,203Z" transform="translate(-9.22 -74.29)"/>
              <path class="cls-14" d="M159.84,230a19.39,19.39,0,0,1-10.25-3.62s2.27,6,10.29,5.64Z" transform="translate(-9.22 -74.29)"/>
            </g>
            <g>
              <g>
                <path class="cls-2" d="M166.29,205.57c-.14.15-1-.54-2.21-.6s-2.16.51-2.28.35.09-.33.5-.6a3.2,3.2,0,0,1,1.84-.46,3,3,0,0,1,1.75.67C166.25,205.23,166.37,205.51,166.29,205.57Z" transform="translate(-9.22 -74.29)"/>
                <g>
                  <path class="cls-2" d="M154.46,208.2a1.14,1.14,0,0,1-1.16,1.1,1.11,1.11,0,0,1-1.13-1.09,1.14,1.14,0,0,1,1.16-1.1A1.1,1.1,0,0,1,154.46,208.2Z" transform="translate(-9.22 -74.29)"/>
                  <path class="cls-2" d="M165.65,208.2a1.14,1.14,0,0,1-1.16,1.1,1.1,1.1,0,0,1-1.13-1.09,1.14,1.14,0,0,1,1.16-1.1A1.1,1.1,0,0,1,165.65,208.2Z" transform="translate(-9.22 -74.29)"/>
                  <path class="cls-2" d="M154.42,205.13c-.15.14-1-.55-2.21-.61s-2.16.51-2.29.35.1-.33.51-.59a3.1,3.1,0,0,1,1.84-.47,3,3,0,0,1,1.75.67C154.38,204.79,154.49,205.06,154.42,205.13Z" transform="translate(-9.22 -74.29)"/>
                </g>
                <path class="cls-2" d="M158.3,214.91a8.19,8.19,0,0,1,2-.26c.31,0,.62-.06.68-.27a1.67,1.67,0,0,0-.16-.94L160,211a41.25,41.25,0,0,1-1.76-6.36,41.36,41.36,0,0,1,2.27,6.2c.27.86.52,1.67.77,2.45a1.79,1.79,0,0,1,.09,1.24.79.79,0,0,1-.54.44,2,2,0,0,1-.53,0A8.18,8.18,0,0,1,158.3,214.91Z" transform="translate(-9.22 -74.29)"/>
                <path class="cls-2" d="M154.63,215.57c.21,0,.14,1.34,1.23,2.34s2.52.93,2.52,1.12-.33.24-.93.23a3.36,3.36,0,0,1-2.11-.86,3,3,0,0,1-.94-2C154.38,215.88,154.54,215.56,154.63,215.57Z" transform="translate(-9.22 -74.29)"/>
              </g>
              <path class="cls-2" d="M154.57,200.67c-.14.32-1.35.1-2.81.2s-2.63.43-2.81.12c-.08-.14.14-.45.63-.75a4.75,4.75,0,0,1,2.11-.62,4.68,4.68,0,0,1,2.17.37C154.38,200.23,154.63,200.51,154.57,200.67Z" transform="translate(-9.22 -74.29)"/>
              <path class="cls-2" d="M165.92,201.13c-.23.27-1.06-.07-2.08-.13s-1.89.09-2.07-.22c-.08-.14.07-.41.46-.66a3,3,0,0,1,3.34.28C165.92,200.7,166,201,165.92,201.13Z" transform="translate(-9.22 -74.29)"/>
            </g>
            <g>
              <path class="cls-13" d="M141.08,209.1c-.13-.07-5.41-1.91-5.52,3.56S141,217.12,141,217,141.08,209.1,141.08,209.1Z" transform="translate(-9.22 -74.29)"/>
              <path class="cls-14" d="M139.35,214.85s-.09.07-.26.14a1,1,0,0,1-.71,0,2.37,2.37,0,0,1-1-2.14,3.27,3.27,0,0,1,.29-1.36,1.11,1.11,0,0,1,.74-.72.48.48,0,0,1,.55.27c.07.16,0,.27.07.28s.12-.09.08-.32a.66.66,0,0,0-.21-.35.76.76,0,0,0-.53-.15,1.37,1.37,0,0,0-1,.83,3.13,3.13,0,0,0-.36,1.52,2.49,2.49,0,0,0,1.34,2.4,1.08,1.08,0,0,0,.88-.13C139.34,215,139.37,214.86,139.35,214.85Z" transform="translate(-9.22 -74.29)"/>
            </g>
          </g>
          <path class="cls-2" d="M138.05,208.75a2.9,2.9,0,0,1,2.56,1.49c.31.8.35,1.69.66,2.49a1.93,1.93,0,0,0,1.92,1.39,1.69,1.69,0,0,0,1.21-1.19,4.72,4.72,0,0,0,.11-1.76c-.2-2.57-.6-5.13-.57-7.71a13.11,13.11,0,0,1,2-7.35,7.18,7.18,0,0,1,6.58-3.26c1.69.22,3.2,1.19,4.88,1.52A6.69,6.69,0,0,0,163,192.8c.2-.17,1.08-.69,1.08-.69a3.12,3.12,0,0,0-.49-1.72c-3.19-3.27-9.18-4.45-13.66-3.56a15.94,15.94,0,0,0-10.9,7.83c-2.12,4.05-1.85,9.85-1,14.09" transform="translate(-9.22 -74.29)"/>
          <path class="cls-2" d="M161.61,191.23c-3,.11-8.81,1.23-11.2,3.09-.28.22-.59.58-.4.89s.47.24.74.23a41.68,41.68,0,0,1,8.22,1.25,14.37,14.37,0,0,0,5.34.81,5.25,5.25,0,0,0,4.36-2.8l.77.29A8.91,8.91,0,0,0,161.61,191.23Z" transform="translate(-9.22 -74.29)"/>
          <path class="cls-3" d="M167.88,194.91a10.21,10.21,0,0,0-5.95-2.72c-6.92-.63-18.28,1.45-24.3,13.34a27.33,27.33,0,0,1-1.22-6.34c0-1.63,1-11.32,11-14.32C147.43,184.87,162.49,179.2,167.88,194.91Z" transform="translate(-9.22 -74.29)"/>
          <g class="cls-5">
            <path d="M167.88,194.91a9.73,9.73,0,0,0-6.66-3.07c-6.2-.3-17.92,2.48-23.59,13.69a27.33,27.33,0,0,1-1.22-6.34c0-1.63,1-11.32,11-14.32C147.43,184.87,162.49,179.2,167.88,194.91Z" transform="translate(-9.22 -74.29)"/>
          </g>
          <path class="cls-3" d="M138.57,203.84c3-5,7.5-8.45,12.35-11.45s12.84-5.93,18.35-7.37a12,12,0,0,1,5.06-.5,4.55,4.55,0,0,1,3.73,3.08c.52,2.08-3.18,5.26-4.92,6.51a51.72,51.72,0,0,1-5,2.94s-.2-3.72-6.36-4.53C153.39,191.42,138.31,204.05,138.57,203.84Z" transform="translate(-9.22 -74.29)"/>
          <path class="cls-4" d="M150,188.49a29.53,29.53,0,0,1,5.7-2,30.62,30.62,0,0,1,6-.33,5.32,5.32,0,0,0-1.76-.32,16.14,16.14,0,0,0-4.34.24,16,16,0,0,0-4.1,1.4A5.7,5.7,0,0,0,150,188.49Z" transform="translate(-9.22 -74.29)"/>
        </g>
        <g>
          <g>
            <path class="cls-3" d="M171.51,456.82l.06.94s17,5.67,17.39,8.68L156,467.7l-.2-10.53A19.58,19.58,0,0,0,171.51,456.82Z" transform="translate(-9.22 -74.29)"/>
            <g class="cls-15">
              <path class="cls-4" d="M156,467.7l-.05-2.53,31.58-.29s1.5.56,1.4,1.56Z" transform="translate(-9.22 -74.29)"/>
            </g>
            <path class="cls-2" d="M171.69,457.84c0,.15-.79.25-1.55.78s-1.14,1.19-1.3,1.14,0-1,1-1.58S171.72,457.7,171.69,457.84Z" transform="translate(-9.22 -74.29)"/>
            <path class="cls-2" d="M175.23,459.08c.05.15-.63.43-1.14,1.11s-.62,1.37-.78,1.37-.32-.87.33-1.7S175.22,458.93,175.23,459.08Z" transform="translate(-9.22 -74.29)"/>
            <path class="cls-2" d="M177.44,463c-.15,0-.42-.73-.06-1.59s1.1-1.22,1.17-1.1-.36.6-.65,1.31S177.6,463,177.44,463Z" transform="translate(-9.22 -74.29)"/>
          </g>
          <path class="cls-2" d="M174.15,383.21l-5.58-18.6-7.43-23.68.41-12.19-12.44-8.57c-8.13.14-31.82-1.26-31.82-1.26s.61,12.36,1.83,21.26a11.52,11.52,0,0,0,1.91,4.92L131.94,361l18.76,35s1.25,12.5,1.77,23.3c.58,12.1,2.53,34,2.53,34l19.3.46,1.21-48.48C176,398,176.54,390.11,174.15,383.21Z" transform="translate(-9.22 -74.29)"/>
          <path class="cls-13" d="M186.1,382.62c2.22,1.8,4.21,26.27.55,24.49l4.35,4.11,11.64-2,1.61-25.71Z" transform="translate(-9.22 -74.29)"/>
          <path class="cls-2" d="M153.2,309.49s48.22,13.12,53.22,23.5a19.61,19.61,0,0,1,2.7,11.27c-.29,7-4.27,57.33-4.27,57.33l-18.21-1.2-1.75-18.57-.3-28.11,1.27-3.2a8.94,8.94,0,0,1-4.23-.05c-2.07-.61-33.49-10.12-33.49-10.12L135.87,321Z" transform="translate(-9.22 -74.29)"/>
          <g>
            <path class="cls-3" d="M202.92,407.81l0,1S220,416.44,220,419.73l-34.41-1.44.94-11.43A19.73,19.73,0,0,0,202.92,407.81Z" transform="translate(-9.22 -74.29)"/>
            <g class="cls-15">
              <path class="cls-4" d="M185.62,418.29l.22-2.75,32.91,2.39s1.5.73,1.28,1.8Z" transform="translate(-9.22 -74.29)"/>
            </g>
            <path class="cls-2" d="M203,408.94c0,.17-.86.21-1.71.71s-1.32,1.2-1.47,1.12.14-1,1.18-1.62S203.05,408.78,203,408.94Z" transform="translate(-9.22 -74.29)"/>
            <path class="cls-2" d="M206.55,410.58c0,.17-.7.42-1.31,1.11s-.79,1.43-1,1.42-.23-1,.53-1.81S206.56,410.42,206.55,410.58Z" transform="translate(-9.22 -74.29)"/>
            <path class="cls-2" d="M208.42,415c-.15,0-.35-.82.12-1.72s1.27-1.24,1.34-1.1-.44.62-.82,1.36S208.59,415,208.42,415Z" transform="translate(-9.22 -74.29)"/>
          </g>
          <path class="cls-3" d="M193.56,341.17a6.19,6.19,0,0,0-1.58,1.05,19.15,19.15,0,0,0-3.19,3.3,18.82,18.82,0,0,0-2.3,4,6,6,0,0,0-.58,1.81,38,38,0,0,1,3.22-5.52A37.54,37.54,0,0,1,193.56,341.17Z" transform="translate(-9.22 -74.29)"/>
          <path class="cls-3" d="M189.65,337.35a7.58,7.58,0,0,0-1.1,1.81A24.65,24.65,0,0,0,186,349a8.05,8.05,0,0,0,.09,2.11,14.91,14.91,0,0,0,.21-2.09,32.58,32.58,0,0,1,.86-5,32,32,0,0,1,1.64-4.77A17.31,17.31,0,0,0,189.65,337.35Z" transform="translate(-9.22 -74.29)"/>
          <path class="cls-3" d="M157.35,330.21c.13,0,2.31,6,4.86,13.4s4.51,13.52,4.37,13.57-2.31-5.95-4.86-13.4S157.21,330.26,157.35,330.21Z" transform="translate(-9.22 -74.29)"/>
        </g>
        <g>
          <polygon class="cls-3" points="155.48 167.43 163.35 164.28 183.88 175.42 175.5 194.6 157.44 185.63 155.48 167.43"/>
          <path class="cls-3" d="M172.57,238.56l-12.48-4.72s-2.73,5.77-8.7,4-12.55-7.09-12.55-7.09-11.35,4.5-14.81,6.55-5.33,55.24-5.33,55.24l-.94,20.58L117.2,317a45.35,45.35,0,0,0-.37,5.6c21.15,4.75,42.06-.28,53.27-6.5,0,0,1.48-1.16.84-3.81s-2-3.11-2-3.11l.28-23.26,2.08-23.79Z" transform="translate(-9.22 -74.29)"/>
          <path class="cls-13" d="M183.74,298.72,155.66,287.1l-17.4-38.53-15.48,6.5s16.62,41.78,23.07,45.25,33.05,5.07,33.05,5.07Z" transform="translate(-9.22 -74.29)"/>
          <path class="cls-3" d="M124,237.3s-5.85,2.93-5.84,14.13c0,9.73,2.87,25.24,2.87,25.24l27.56-9.59-8.52-19.8C138.07,242.56,133.63,233.88,124,237.3Z" transform="translate(-9.22 -74.29)"/>
          <path class="cls-2" d="M124.21,275.57a3.46,3.46,0,0,1,.46-.2l1.35-.52,5.07-1.84,17.45-6.17-.15.32c-.87-2.62-1.82-5.42-2.86-8.27-1.64-4.49-3.35-8.7-5.1-12.45a30.73,30.73,0,0,0-2.81-5.1,9.35,9.35,0,0,0-3.73-3.27,14.21,14.21,0,0,0-7.15-1.21,6.56,6.56,0,0,0-1.91.52,4.66,4.66,0,0,1-.62.34s0-.05.14-.12a2.42,2.42,0,0,1,.43-.31,5.76,5.76,0,0,1,1.93-.63,14,14,0,0,1,7.33,1.07,9.74,9.74,0,0,1,3.93,3.36,30.12,30.12,0,0,1,2.89,5.15c1.79,3.75,3.51,8,5.16,12.47,1,2.86,2,5.66,2.84,8.29l.08.24-.23.08-17.51,6-5.12,1.7-1.38.44A1.87,1.87,0,0,1,124.21,275.57Z" transform="translate(-9.22 -74.29)"/>
          <path class="cls-2" d="M167.68,310a11.47,11.47,0,0,1-1.37,1.1c-.45.34-1,.75-1.69,1.17s-1.44.95-2.33,1.42-1.86,1-2.95,1.52-2.25,1-3.5,1.49a52.69,52.69,0,0,1-8.4,2.29,51.73,51.73,0,0,1-8.67.7c-1.34,0-2.62-.06-3.8-.21a31.75,31.75,0,0,1-3.28-.42c-1-.14-1.89-.37-2.68-.54s-1.45-.36-2-.53a9.93,9.93,0,0,1-1.66-.57,12.14,12.14,0,0,1,1.71.37c.55.14,1.21.31,2,.44s1.67.35,2.67.46,2.09.3,3.27.36,2.43.13,3.76.16a52.94,52.94,0,0,0,8.58-.74,53.59,53.59,0,0,0,8.33-2.22c1.23-.49,2.42-.92,3.48-1.43s2.06-1,3-1.45,1.66-.94,2.35-1.35a20.14,20.14,0,0,0,1.73-1.09A10.86,10.86,0,0,1,167.68,310Z" transform="translate(-9.22 -74.29)"/>
          <rect class="cls-4" x="150.87" y="186.74" width="7.71" height="3.65"/>
          <path class="cls-2" d="M172.17,249.7c.15,0-.14,5.64-.63,12.56s-1,12.54-1.15,12.53.14-5.64.63-12.56S172,249.69,172.17,249.7Z" transform="translate(-9.22 -74.29)"/>
        </g>
      </g>
      <g>
        <rect class="cls-6" x="23.79" y="201.29" width="72.84" height="15.91"/>
        <g>
          <rect class="cls-6" x="18.93" y="217.37" width="82.61" height="63.71"/>
          <path class="cls-2" d="M90.06,354.92c-.09,0-.17-14.2-.17-31.72s.08-31.72.17-31.72.16,14.2.16,31.72S90.15,354.92,90.06,354.92Z" transform="translate(-9.22 -74.29)"/>
          <rect class="cls-10" x="88.2" y="266.58" width="10.46" height="10.46"/>
          <rect class="cls-16" x="44.08" y="217.37" width="9.38" height="13.6"/>
          <rect class="cls-16" x="44.13" y="267.49" width="9.38" height="13.6"/>
        </g>
        <rect class="cls-17" x="80.84" y="217.2" width="20.7" height="64.06"/>
        <path class="cls-2" d="M110.48,291.65c0,.15-18.4.26-41.09.26s-41.1-.11-41.1-.26,18.4-.26,41.1-.26S110.48,291.51,110.48,291.65Z" transform="translate(-9.22 -74.29)"/>
        <rect class="cls-17" x="76.24" y="201.29" width="20.39" height="15.8"/>
        <path class="cls-2" d="M85.3,291.27a57.9,57.9,0,0,1-.26-7.69,57.77,57.77,0,0,1,.26-7.69,55.81,55.81,0,0,1,.26,7.69A55.93,55.93,0,0,1,85.3,291.27Z" transform="translate(-9.22 -74.29)"/>
        <rect class="cls-4" x="45.18" y="201.29" width="10.25" height="4.82"/>
        <path class="cls-2" d="M68.75,275.88a.68.68,0,0,1,0-.23l.08-.69c.07-.59.2-1.47.44-2.6a26.75,26.75,0,0,1,3.61-9,20.47,20.47,0,0,1,2-2.57,10.74,10.74,0,0,1,2.64-2.34,3.16,3.16,0,0,1,1.89-.44A2.12,2.12,0,0,1,81,259.26a6.71,6.71,0,0,1,.09,4,15.14,15.14,0,0,1-4.39,7.28,40.28,40.28,0,0,1-7.44,5.3l-.37.22-.15.09-.14-.1a62.36,62.36,0,0,1-7-5.78,24.25,24.25,0,0,1-5-6.82,7.82,7.82,0,0,1-.71-1.91,3.15,3.15,0,0,1,.17-2,2.16,2.16,0,0,1,1.55-1.28,2.72,2.72,0,0,1,1.87.5,7.79,7.79,0,0,1,1.34,1.2c.4.42.77.85,1.13,1.27a29.85,29.85,0,0,1,1.92,2.55A31.16,31.16,0,0,1,68,272.44a24.22,24.22,0,0,1,.59,2.54l.1.67a2,2,0,0,1,0,.23s0-.07-.07-.22l-.15-.66c-.13-.58-.34-1.43-.68-2.5A32.7,32.7,0,0,0,63.6,264a29.84,29.84,0,0,0-1.92-2.5c-.36-.42-.73-.84-1.13-1.24a7.25,7.25,0,0,0-1.28-1.13,2.26,2.26,0,0,0-1.55-.42,1.67,1.67,0,0,0-1.21,1c-.51,1.08,0,2.39.55,3.54A24.13,24.13,0,0,0,62,270a61.84,61.84,0,0,0,6.93,5.72h-.29l.37-.22a40.09,40.09,0,0,0,7.35-5.23,14.6,14.6,0,0,0,4.28-7,6.3,6.3,0,0,0,0-3.73,1.68,1.68,0,0,0-1.27-1,2.67,2.67,0,0,0-1.61.38,10.76,10.76,0,0,0-2.56,2.23,21,21,0,0,0-2,2.51,27.51,27.51,0,0,0-3.73,8.82c-.26,1.11-.42,2-.53,2.57l-.12.67Z" transform="translate(-9.22 -74.29)"/>
        <path class="cls-2" d="M111,319.82c0,.14-18.52.26-41.35.26s-41.35-.12-41.35-.26,18.51-.26,41.35-.26S111,319.67,111,319.82Z" transform="translate(-9.22 -74.29)"/>
        <path class="cls-2" d="M68.91,356.39c-.14,0-.26-18.22-.26-40.69s.12-40.7.26-40.7.26,18.22.26,40.7S69.06,356.39,68.91,356.39Z" transform="translate(-9.22 -74.29)"/>
      </g>
    </g>
  </g>
</svg>
